<svg viewBox="0 0 1024 1024" version="1.1" xmlns="http://www.w3.org/2000/svg">
    <g fill="currentColor" stroke="currentColor" stroke-width="13">
        <path d="M 901.12,841.728 H 849.408 V 374.272 c 0,-72.704 -41.472,-103.936 -67.584,-109.056 L 615.936,213.504 V 156.16 c 0,-10.24 -5.12,-15.36 -10.24,-20.992 -5.12,-5.12 -15.36,-5.12 -20.992,-5.12 l -347.648,98.816 c 0,0 -62.464,15.36 -62.464,98.816 V 841.728 H 122.88 c -15.36,0 -26.112,10.24 -26.112,26.112 0,15.36 10.24,26.112 26.112,26.112 h 778.24 c 15.36,0 26.112,-10.24 26.112,-26.112 0,-15.872 -10.24,-26.112 -26.112,-26.112 z m -337.408,0 H 226.304 V 327.68 c 0,-36.352 20.992,-46.592 26.112,-46.592 l 311.296,-88.064 z m 233.984,0 H 615.936 V 265.216 l 160.256,53.248 3.584,1.536 c 0,0 15.872,6.656 18.432,54.272 v 467.456 z" />
    </g>

    <g fill="currentColor" stroke="currentColor" stroke-width="6" opacity="0.8">
        <path d="m 491.008,300.032 h -51.712 v 51.712 h 51.712 z M 371.712,413.184 H 320 v 51.712 h 51.712 z m 119.296,0 h -51.712 v 51.712 h 51.712 z M 371.712,526.336 H 320 v 51.712 h 51.712 z m 119.296,0 h -51.712 v 51.712 h 51.712 z M 371.712,638.976 H 320 V 691.2 h 51.712 z m 119.296,0 H 439.296 V 691.2 h 51.712 z m 0,113.152 h -51.712 v 51.712 h 51.712 z M 683.52,452.096 h 51.712 V 400.384 H 683.52 Z m 0,119.296 h 51.712 V 519.68 H 683.52 Z m 0,113.664 h 51.712 V 633.344 H 683.52 Z m 0,115.2 h 51.712 V 748.544 H 683.52 Z" />
        <!-- <path d="M 371.712,752.128 H 320 V 803.840 h 51.712 z" /> -->
        <path opacity="0.5" d="M 371.712,300.032 320,300.032 V 351.744 h 51.712 z" />
        <path d="M 371.712,302.224 320,315.738 V 351.744 h 51.712 z" />
    </g>

    <g fill="currentColor" stroke="currentColor" stroke-width="6" opacity="1">
        <path d="M 371.712,752.128 H 320 V 854 h 51.712 z" />
    </g>
</svg>
