<svg xmlns="http://www.w3.org/2000/svg" width="24" height="24" viewBox="0 0 24 24">

    <!--
    <rect fill="#aaa" x="0" y="0" width="24" height="24" stroke="none"/>
    -->

    <defs>

        <mask id="mask" maskUnits="userSpaceOnUse" maskContentUnits="userSpaceOnUse" x="0" y="0" width="24" height="24" style="mask-type:luminance">

            <rect fill="white" x="0" y="0" width="24" height="24"/>

            <g transform-origin="8 8" transform="translate(-4 -3.3) scale(0.75)">
                <g transform-origin="12 12" transform="rotate(-8)">
                    <g fill="black" stroke="black" stroke-width="4.35">
                        <path d="M 4.22 4.179 a 0.75 0.75 0 0 1 1.06 0 l 5.26 1.06 v 0 a 0.75 0.75 0 0 1 1.5 0 v 6.01 a 0.75 0.75 0 0 1 -0.75 0.75 H 5.28 a 0.75 0.75 0 0 1 0 -1.5 L 4.22 5.24 a 0.75 0.75 0 0 1 0 -1.06 Z"></path>
                    </g>
                </g>
            </g>

        </mask>

    </defs>

    <g>

        <g transform-origin="8 8" transform="translate(-4 -3.3) scale(0.75) " opacity="0.6">
            <g transform-origin="12 12" transform="rotate(-8)">
                <g fill="currentColor" stroke="currentColor" stroke-width="0.55">
                    <path d="M4.22 4.179a.75.75 0 0 1 1.06 0l5.26 5.26v-4.2a.75.75 0 0 1 1.5 0v6.01a.75.75 0 0 1-.75.75H5.28a.75.75 0 0 1 0-1.5h4.2L4.22 5.24a.75.75 0 0 1 0-1.06Z"></path>
                </g>
            </g>
        </g>

        <g mask="url(#mask)">
            <g transform-origin="23 23" transform="translate(0.65 -0.55) scale(0.93)">
                <g fill="currentColor" stroke="currentColor" stroke-width="0.15">
                    <path fill-rule="evenodd" d="M12 1C5.925 1 1 5.925 1 12s4.925 11 11 11 11-4.925 11-11S18.075 1 12 1zM2.513 11.5h4.745c.1-3.037 1.1-5.49 2.093-7.204.39-.672.78-1.233 1.119-1.673C6.11 3.329 2.746 7 2.513 11.5zm4.77 1.5H2.552a9.505 9.505 0 007.918 8.377 15.698 15.698 0 01-1.119-1.673C8.413 18.085 7.47 15.807 7.283 13zm1.504 0h6.426c-.183 2.48-1.02 4.5-1.862 5.951-.476.82-.95 1.455-1.304 1.88L12 20.89l-.047-.057a13.888 13.888 0 01-1.304-1.88C9.807 17.5 8.969 15.478 8.787 13zm6.454-1.5H8.759c.1-2.708.992-4.904 1.89-6.451.476-.82.95-1.455 1.304-1.88L12 3.11l.047.057c.353.426.828 1.06 1.304 1.88.898 1.548 1.79 3.744 1.89 6.452zm1.476 1.5c-.186 2.807-1.13 5.085-2.068 6.704-.39.672-.78 1.233-1.118 1.673A9.505 9.505 0 0021.447 13h-4.731zm4.77-1.5h-4.745c-.1-3.037-1.1-5.49-2.093-7.204-.39-.672-.78-1.233-1.119-1.673 4.36.706 7.724 4.377 7.957 8.877z"/>
                </g>
            </g>
        </g>

        <!--
        <g transform-origin="24 24" transform="translate(0.5 -0.35) scale(0.93)">
            <g transform-origin="50%" transform="rotate(-8)">
                <line stroke-width="0.2" stroke="white" x1="0" y1="0" x2="24" y2="24"/>
                <line stroke-width="0.2" stroke="white" x1="0" y1="24" x2="24" y2="0"/>
            </g>
        </g>
        -->

    </g>

</svg>
